<!DOCTYPE svg PUBLIC "-//W3C//DTD SVG 1.1//EN" "http://www.w3.org/Graphics/SVG/1.1/DTD/svg11.dtd">
<!-- Uploaded to: SVG Repo, www.svgrepo.com, Transformed by: SVG Repo Mixer Tools -->
<svg fill="#ffffff" width="800px" height="800px" viewBox="-0.96 -0.96 33.92 33.92" id="icon" xmlns="http://www.w3.org/2000/svg">
<g id="SVGRepo_bgCarrier" stroke-width="0"/>
<g id="SVGRepo_tracerCarrier" stroke-linecap="round" stroke-linejoin="round"/>
<g id="SVGRepo_iconCarrier">
<defs>
<style>.cls-1{fill:none;}</style>
</defs>
<title>tool-box</title>
<path d="M27,9H24V6a2,2,0,0,0-2-2H10A2,2,0,0,0,8,6V9H5a3,3,0,0,0-3,3V26a2,2,0,0,0,2,2H28a2,2,0,0,0,2-2V12A3,3,0,0,0,27,9ZM10,6H22V9H10ZM28,26H4V17h8v5h8V17h8ZM14,17h4v3H14ZM4,15V12a1,1,0,0,1,1-1H27a1,1,0,0,1,1,1v3Z"/>
<rect id="_Transparent_Rectangle_" data-name="&lt;Transparent Rectangle&gt;" class="cls-1" width="32" height="32"/>
</g>
</svg>